HIERARCHY
ROOT Hips
{
	OFFSET 0.00000 0.00000 0.00000
	CHANNELS 6 Xposition Yposition Zposition Yrotation Zrotation Xrotation 
	JOINT Lumbar
	{
		OFFSET 0 0 0
		CHANNELS 3 Zrotation Xrotation Yrotation
		JOINT Neck
		{
			OFFSET 0.00 0.2701 0.00
			CHANNELS 3 Zrotation Xrotation Yrotation
			End Site
			{
				OFFSET 0.00 0.1379 0.00
			}
		}
		JOINT RightShoulder
		{
			OFFSET 0.0119 0.2289 0.1181
			CHANNELS 3 Zrotation Xrotation Yrotation
			JOINT RightElbow
			{
				OFFSET 0.00 -0.1475 0.00
				CHANNELS 2 Zrotation Yrotation
				JOINT RightWrist
				{
					OFFSET 0.00 -0.1605 0.00
					CHANNELS 2 Zrotation Xrotation
					End Site
					{
						OFFSET 0.0040 -0.1068 0.0006
					}
				}
			}
		}
		JOINT LeftShoulder
		{
			OFFSET 0.0119 0.2289 -0.1181
			CHANNELS 3 Zrotation Xrotation Yrotation
			JOINT LeftElbow
			{
				OFFSET 0.00 -0.1475 0.00
				CHANNELS 2 Zrotation Yrotation
				JOINT LeftWrist
				{
					OFFSET 0.00 -0.1605 0.00
					CHANNELS 2 Zrotation Xrotation
					End Site
					{
						OFFSET 0.0040 -0.1068 -0.0006
					}
				}
			}
		}
	}
	JOINT RightHip
	{
		OFFSET 0.0316 -0.0424 0.0458
		CHANNELS 3 Zrotation Xrotation Yrotation
		JOINT RightKnee
		{
			OFFSET 0.00 -0.2438 0.00
			CHANNELS 1 Zrotation
			JOINT RightAnkle
			{
				OFFSET 0.00 -0.2449 0.00
				CHANNELS 3 Zrotation Xrotation Yrotation
				End Site
				{
					OFFSET 0.1237 -0.0542 0.0051
				}
			}
		}
	}
	JOINT LeftHip
	{
		OFFSET 0.0316 -0.0424 -0.0458
		CHANNELS 3 Zrotation Xrotation Yrotation
		JOINT LeftKnee
		{
			OFFSET 0.00 -0.2438 0.00
			CHANNELS 1 Zrotation
			JOINT LeftAnkle
			{
				OFFSET 0.00 -0.2449 0.00
				CHANNELS 3 Zrotation Xrotation Yrotation
				End Site
				{
					OFFSET 0.1237 -0.0542 -0.0051
				}
			}
		}
	}
}
MOTION
Frames: 26
Frame Time: 0.02
0 0.57926 -0 178.03 0 -4.9118 6.4703 5.07204 -4.46511 -20.22637 8.20129 3.13109 16.49167 -22.57047 17.70024 11.63961 81.77772 -1.64028 -4.39447 17.68215 3.59537 -19.0394 10.06218 -84.05833 -3.76973 3.64235 -4.57976 7.47129 -2.07641 -6.85199 -11.8685 -2.46437 -9.17382 -6.78777 5.36815 17.83179 -0.46227 -7.02049 2.84243 4.84796
-0 0.57926 1e-05 178.00069 0 -4.91018 6.47062 5.07233 -4.35046 -20.37622 8.11575 3.13262 16.51205 -22.45786 17.96801 11.58829 81.78992 -1.61568 -4.3614 17.83595 3.65163 -18.63133 10.05926 -84.00723 -3.7762 3.64537 -4.57838 7.46677 -2.08808 -6.84928 -11.8644 -2.46917 -9.16052 -6.7653 5.36721 17.80611 -0.52292 -6.87305 2.87259 4.95235
-1e-05 0.57926 3e-05 177.97127 0 -4.9086 6.4708 5.07268 -4.23629 -20.52508 8.0304 3.13407 16.53237 -22.34557 18.2325 11.53659 81.8019 -1.59109 -4.3281 17.9884 3.70785 -18.22457 10.05563 -83.95465 -3.78235 3.64803 -4.57684 7.46226 -2.09908 -6.84686 -11.86036 -2.47392 -9.14749 -6.74297 5.36626 17.78071 -0.58326 -6.72672 2.9025 5.05624
-1e-05 0.57925 4e-05 177.94119 0 -4.90712 6.47061 5.07335 -4.12296 -20.67186 7.94451 3.13523 16.55295 -22.23284 18.48608 11.4825 81.81291 -1.56612 -4.29323 18.13777 3.76473 -17.81985 10.04947 -83.89493 -3.78735 3.64945 -4.57465 7.4577 -2.10727 -6.84579 -11.856 -2.47859 -9.13554 -6.7209 5.3652 17.75292 -0.64323 -6.58243 2.93213 5.16242
-2e-05 0.57925 5e-05 177.91468 0 -4.90503 6.47259 5.07239 -4.00519 -20.83018 7.86093 3.13794 16.57248 -22.12169 18.79698 11.44059 81.82877 -1.54296 -4.26626 18.30445 3.81845 -17.40528 10.0571 -83.87213 -3.79855 3.65762 -4.57588 7.45333 -2.13004 -6.83784 -11.85269 -2.48376 -9.11805 -6.69732 5.36464 17.73389 -0.70552 -6.42614 2.96372 5.2604
-2e-05 0.57924 7e-05 177.8806 0 -4.9043 6.46984 5.07483 -3.89694 -20.96358 7.77291 3.13736 16.594 -22.00784 18.98665 11.37332 81.83455 -1.5161 -4.22286 18.43365 3.87855 -17.01129 10.03532 -83.77188 -3.79655 3.65141 -4.56989 7.44861 -2.12215 -6.84428 -11.84757 -2.48784 -9.11218 -6.67705 5.36307 17.69902 -0.7626 -6.29621 2.99082 5.37294
-3e-05 0.57924 0.00012 177.82431 0 -4.90698 6.45441 5.08744 -3.81283 -21.03212 7.66681 3.12734 16.62343 -21.87855 18.83168 11.22869 81.81013 -1.47705 -4.12907 18.46512 3.96082 -16.67094 9.9305 -83.44177 -3.75722 3.60469 -4.54298 7.44231 -2.02474 -6.89335 -11.83395 -2.4892 -9.14023 -6.66497 5.35824 17.59435 -0.80834 -6.23141 3.00869 5.5537
-3e-05 0.57924 0.00018 177.76063 0 -4.91111 6.43398 5.10334 -3.73869 -21.07474 7.55727 3.11407 16.65443 -21.74793 18.55603 11.05971 81.77595 -1.43462 -4.01955 18.45771 4.0487 -16.35169 9.79624 -83.03596 -3.70469 3.54357 -4.50889 7.43577 -1.89719 -6.95646 -11.8192 -2.48942 -9.17966 -6.65636 5.35247 17.47778 -0.84827 -6.19464 3.02154 5.74476
-4e-05 0.57924 0.00023 177.70102 0 -4.91479 6.41569 5.11721 -3.6612 -21.12688 7.45285 3.10248 16.68316 -21.62283 18.34172 10.90639 81.74778 -1.39496 -3.9203 18.46443 4.13125 -16.02431 9.67643 -82.67485 -3.65871 3.48946 -4.47872 7.42969 -1.7864 -7.01133 -11.80715 -2.48999 -9.21275 -6.64685 5.34738 17.38427 -0.88893 -6.14988 3.03457 5.91241
-4e-05 0.57923 0.00028 177.63813 0 -4.91754 6.39846 5.13334 -3.57847 -21.189 7.33308 3.08993 16.71847 -21.47665 18.09975 10.73347 81.71302 -1.34999 -3.80768 18.48619 4.22586 -15.69037 9.55192 -82.27065 -3.61037 3.43329 -4.44592 7.42206 -1.66254 -7.07406 -11.7856 -2.49129 -9.25087 -6.6347 5.34116 17.21876 -0.93772 -6.0848 3.0562 6.15686
-4e-05 0.57924 0.00033 177.58067 0 -4.92262 6.37724 5.14555 -3.50937 -21.22359 7.24492 3.07871 16.74043 -21.37448 17.88702 10.59591 81.68957 -1.31541 -3.71941 18.46726 4.29627 -15.37568 9.43045 -81.93777 -3.56387 3.37814 -4.41672 7.41767 -1.55896 -7.12371 -11.78389 -2.49075 -9.28108 -6.62862 5.33715 17.19726 -0.9681 -6.06908 3.05908 6.24658
-4e-05 0.57929 0.00037 177.53697 0 -4.93326 6.3508 5.14622 -3.47267 -21.19272 7.24121 3.07118 16.72487 -21.39076 17.78251 10.55925 81.70059 -1.3091 -3.70031 18.34596 4.30199 -15.10401 9.32254 -81.82412 -3.52522 3.32796 -4.40054 7.42183 -1.51684 -7.13424 -11.83444 -2.486 -9.28792 -6.64039 5.33895 17.60244 -0.9501 -6.17933 3.00833 5.88318
-3e-05 0.57936 0.0004 177.49956 0 -4.94626 6.31934 5.1428 -3.44992 -21.13374 7.27023 3.06525 16.6956 -21.45209 17.71221 10.55958 81.72322 -1.31358 -3.70667 18.18464 4.28242 -14.85213 9.21919 -81.78419 -3.489 3.27962 -4.38787 7.42933 -1.49653 -7.1311 -11.90545 -2.47935 -9.28622 -6.65767 5.3431 18.1477 -0.91364 -6.33884 2.93945 5.36844
-2e-05 0.57943 0.00044 177.46128 0 -4.95856 6.28762 5.14124 -3.42257 -21.08553 7.28656 3.05909 16.67316 -21.49489 17.62729 10.54471 81.73994 -1.31394 -3.70259 18.04173 4.27223 -14.5941 9.11496 -81.7079 -3.45195 3.23125 -4.37289 7.43566 -1.4675 -7.13384 -11.96901 -2.47315 -9.28751 -6.67132 5.34659 18.61218 -0.88488 -6.47819 2.8809 4.93784
-5e-05 0.57948 0.00047 177.41434 0 -4.96948 6.2678 5.13992 -3.38805 -21.047 7.29313 3.05067 16.6494 -21.52906 17.5333 10.52202 81.75884 -1.31095 -3.69302 17.89785 4.27151 -14.32382 9.00424 -81.64074 -3.41316 3.1787 -4.36117 7.44062 -1.43239 -7.13821 -12.025 -2.46855 -9.29272 -6.69034 5.34843 19.1501 -0.85858 -6.60949 2.81338 4.44128
3e-05 0.57956 0.00051 177.387 0 -4.98365 6.22036 5.13696 -3.37189 -20.97928 7.32837 3.04745 16.62366 -21.59241 17.4691 10.52491 81.77626 -1.31747 -3.70135 17.74535 4.24454 -14.08471 8.90904 -81.57345 -3.37887 3.13582 -4.34296 7.4491 -1.4155 -7.13609 -12.10127 -2.46031 -9.28787 -6.69884 5.35415 19.56652 -0.82316 -6.76841 2.76024 4.04788
0.00036 0.57973 0.00054 177.41246 0 -5.0075 6.11211 5.13155 -3.40095 -20.86024 7.43047 3.05756 16.60787 -21.72133 17.46947 10.58792 81.7853 -1.34816 -3.75106 17.59277 4.15485 -13.91614 8.85134 -81.48471 -3.35529 3.11641 -4.31112 7.46758 -1.44367 -7.11644 -12.23174 -2.44129 -9.25504 -6.68179 5.37087 19.63129 -0.76481 -6.99538 2.75164 3.95927
0.00081 0.57993 0.00057 177.45742 0 -5.03429 5.97322 5.12442 -3.44837 -20.70828 7.56114 3.07291 16.58811 -21.87883 17.50132 10.67581 81.7928 -1.38801 -3.81834 17.43026 4.03889 -13.78008 8.81011 -81.39427 -3.33641 3.10733 -4.27156 7.48926 -1.4895 -7.0913 -12.38131 -2.41884 -9.21286 -6.65287 5.39124 19.5666 -0.6985 -7.24753 2.75801 3.98191
0.00124 0.58011 0.00061 177.49334 0 -5.05891 5.83954 5.11737 -3.48863 -20.5574 7.68153 3.08637 16.56244 -22.02583 17.52506 10.75332 81.80202 -1.42325 -3.87882 17.26369 3.93258 -13.63614 8.76419 -81.30694 -3.31616 3.09534 -4.23243 7.50876 -1.52739 -7.07039 -12.52006 -2.39881 -9.17624 -6.62641 5.40937 19.54815 -0.63723 -7.48555 2.75737 3.96599
0.00154 0.5803 0.00064 177.5302 0 -5.08722 5.74407 5.11314 -3.52424 -20.46599 7.79151 3.09811 16.56953 -22.16382 17.52239 10.82804 81.80727 -1.46052 -3.93509 17.13293 3.83508 -13.46407 8.70637 -81.21214 -3.29274 3.07559 -4.20708 7.53147 -1.56585 -7.04126 -12.66861 -2.37528 -9.13334 -6.61323 5.43004 19.58376 -0.56885 -7.73686 2.75724 3.89804
0.00214 0.58047 0.00068 177.56966 0 -5.10842 5.5598 5.10269 -3.57389 -20.24094 7.9297 3.11429 16.50677 -22.32689 17.58349 10.91418 81.82033 -1.49586 -4.00407 16.92444 3.71329 -13.35772 8.6775 -81.1317 -3.27702 3.07476 -4.15031 7.54818 -1.60677 -7.02865 -12.80094 -2.35797 -9.10199 -6.56864 5.44625 19.4792 -0.51419 -7.96555 2.7595 3.96197
0.00348 0.58058 0.00077 177.61158 0 -5.10994 5.15406 5.07548 -3.65546 -19.67386 8.13763 3.14353 16.25896 -22.55131 17.79839 11.0244 81.85484 -1.52129 -4.10295 16.51456 3.53115 -13.42721 8.72207 -81.0898 -3.28124 3.12106 -4.01548 7.5479 -1.65265 -7.0588 -12.88455 -2.3611 -9.09983 -6.44704 5.44937 18.97489 -0.49491 -8.12785 2.76792 4.4066
0.00512 0.58067 0.00087 177.65548 0 -5.10408 4.65646 5.04209 -3.75043 -18.96933 8.37322 3.17607 15.9394 -22.80003 18.07901 11.14545 81.8973 -1.54484 -4.21409 16.02466 3.32543 -13.56099 8.79571 -81.06238 -3.29309 3.18657 -3.84778 7.54143 -1.69992 -7.10675 -12.95104 -2.37019 -9.11061 -6.29269 5.4479 18.34088 -0.4908 -8.26593 2.77785 4.97338
0.00665 0.58077 0.00097 177.69827 0 -5.10113 4.19096 5.01154 -3.84127 -18.31635 8.59653 3.20645 15.64873 -23.0379 18.33885 11.26212 81.93638 -1.5707 -4.32002 15.56493 3.13058 -13.66392 8.8576 -81.02893 -3.30152 3.24491 -3.6909 7.53751 -1.74471 -7.14918 -13.02465 -2.3749 -9.11878 -6.14913 5.4484 17.79555 -0.48253 -8.4133 2.78495 5.45548
0.00805 0.58087 0.00106 177.74225 0 -5.10009 3.76729 4.98078 -3.92629 -17.71116 8.81886 3.24219 15.37513 -23.2756 18.56112 11.37695 81.97442 -1.5907 -4.42491 15.13231 2.93461 -13.77562 8.91371 -80.99299 -3.30982 3.29682 -3.55201 7.53467 -1.7976 -7.17999 -13.1013 -2.38637 -9.11274 -6.02342 5.44932 17.12312 -0.46171 -8.56852 2.80111 6.0618
0.00981 0.58096 0.00118 177.78444 0 -5.09339 3.23236 4.94902 -4.02412 -16.97062 9.05041 3.26448 15.0471 -23.51954 18.87725 11.49842 82.01654 -1.62238 -4.53483 14.62271 2.73514 -13.88296 8.98881 -80.96588 -3.32026 3.36679 -3.36687 7.52822 -1.83412 -7.24004 -13.16783 -2.38546 -9.13956 -5.85168 5.44847 16.68269 -0.47164 -8.70168 2.79917 6.44037
